<mxfile host="app.diagrams.net" modified="2021-12-01T11:21:55.454Z" agent="5.0 (Macintosh; Intel Mac OS X 10_15_7) AppleWebKit/537.36 (KHTML, like Gecko) Chrome/96.0.4664.55 Safari/537.36" etag="d8vdYBE0qW27FuYzM22o" version="15.8.7" type="github">
  <diagram id="FjAEv_3uUnPhrMAkXt-9" name="Page-1">
    <mxGraphModel dx="946" dy="646" grid="1" gridSize="10" guides="1" tooltips="1" connect="1" arrows="1" fold="1" page="1" pageScale="1" pageWidth="3300" pageHeight="4681" math="0" shadow="0">
      <root>
        <mxCell id="0" />
        <mxCell id="1" parent="0" />
        <mxCell id="aP7m1-uafCFphGfOBbi7-3" value="" style="edgeStyle=orthogonalEdgeStyle;rounded=0;orthogonalLoop=1;jettySize=auto;html=1;" parent="1" source="aP7m1-uafCFphGfOBbi7-1" target="aP7m1-uafCFphGfOBbi7-2" edge="1">
          <mxGeometry relative="1" as="geometry" />
        </mxCell>
        <mxCell id="aP7m1-uafCFphGfOBbi7-1" value="do_sys_read()" style="rounded=1;whiteSpace=wrap;html=1;fillColor=#f8cecc;strokeColor=#b85450;" parent="1" vertex="1">
          <mxGeometry x="390" y="140" width="120" height="60" as="geometry" />
        </mxCell>
        <mxCell id="aP7m1-uafCFphGfOBbi7-5" value="" style="edgeStyle=orthogonalEdgeStyle;rounded=0;orthogonalLoop=1;jettySize=auto;html=1;" parent="1" source="aP7m1-uafCFphGfOBbi7-2" target="aP7m1-uafCFphGfOBbi7-4" edge="1">
          <mxGeometry relative="1" as="geometry" />
        </mxCell>
        <mxCell id="aP7m1-uafCFphGfOBbi7-2" value="myf_sys_read()" style="whiteSpace=wrap;html=1;rounded=1;fillColor=#dae8fc;strokeColor=#6c8ebf;" parent="1" vertex="1">
          <mxGeometry x="390" y="280" width="120" height="60" as="geometry" />
        </mxCell>
        <mxCell id="aP7m1-uafCFphGfOBbi7-8" value="" style="edgeStyle=orthogonalEdgeStyle;rounded=0;orthogonalLoop=1;jettySize=auto;html=1;" parent="1" source="aP7m1-uafCFphGfOBbi7-4" target="aP7m1-uafCFphGfOBbi7-7" edge="1">
          <mxGeometry relative="1" as="geometry" />
        </mxCell>
        <mxCell id="aP7m1-uafCFphGfOBbi7-4" value="fp-&amp;gt;f_ops-&amp;gt;fo_read()" style="whiteSpace=wrap;html=1;rounded=1;fillColor=#dae8fc;strokeColor=#6c8ebf;" parent="1" vertex="1">
          <mxGeometry x="390" y="420" width="120" height="60" as="geometry" />
        </mxCell>
        <mxCell id="aP7m1-uafCFphGfOBbi7-6" value="&lt;h1&gt;f_ops&lt;/h1&gt;&lt;p&gt;f_ops.fo_read = myf_fshadow_fileread()&lt;/p&gt;" style="text;html=1;strokeColor=none;fillColor=none;spacing=5;spacingTop=-20;whiteSpace=wrap;overflow=hidden;rounded=0;" parent="1" vertex="1">
          <mxGeometry x="550" y="400" width="240" height="80" as="geometry" />
        </mxCell>
        <mxCell id="aP7m1-uafCFphGfOBbi7-10" value="" style="edgeStyle=orthogonalEdgeStyle;rounded=0;orthogonalLoop=1;jettySize=auto;html=1;" parent="1" source="aP7m1-uafCFphGfOBbi7-7" target="aP7m1-uafCFphGfOBbi7-9" edge="1">
          <mxGeometry relative="1" as="geometry" />
        </mxCell>
        <mxCell id="aP7m1-uafCFphGfOBbi7-7" value="myf_fshadow_fileread()" style="whiteSpace=wrap;html=1;rounded=1;fillColor=#dae8fc;strokeColor=#6c8ebf;" parent="1" vertex="1">
          <mxGeometry x="360" y="550" width="180" height="60" as="geometry" />
        </mxCell>
        <mxCell id="aP7m1-uafCFphGfOBbi7-13" value="" style="edgeStyle=orthogonalEdgeStyle;rounded=0;orthogonalLoop=1;jettySize=auto;html=1;fontColor=#000000;" parent="1" source="aP7m1-uafCFphGfOBbi7-9" target="aP7m1-uafCFphGfOBbi7-12" edge="1">
          <mxGeometry relative="1" as="geometry" />
        </mxCell>
        <mxCell id="aP7m1-uafCFphGfOBbi7-9" value="my_fshadow_sread()" style="whiteSpace=wrap;html=1;rounded=1;fillColor=#d80073;strokeColor=#A50040;fontColor=#ffffff;" parent="1" vertex="1">
          <mxGeometry x="390" y="690" width="120" height="60" as="geometry" />
        </mxCell>
        <mxCell id="aP7m1-uafCFphGfOBbi7-11" value="&lt;h1&gt;sync_read&lt;/h1&gt;&lt;p style=&quot;margin: 8px 0px ; font-family: &amp;#34;segoe wpc&amp;#34; , &amp;#34;segoe ui&amp;#34; , sans-serif ; font-size: 14px&quot;&gt;Sync read data from sf.&lt;br&gt;- It must be called with sf opened with MY_FSHADOW_OMODE_AUTOSZ.&lt;br&gt;- seq contains the offset. It will be updated atomically to the&lt;br&gt;final read offset+read len.&lt;/p&gt;&lt;p style=&quot;margin: 8px 0px 0px ; font-family: &amp;#34;segoe wpc&amp;#34; , &amp;#34;segoe ui&amp;#34; , sans-serif ; font-size: 14px&quot;&gt;Return -1 upon failure, or # of bytes read. If blen is not 0, but 0&lt;br&gt;is returned, then EOF has been reached.&lt;/p&gt;" style="text;html=1;strokeColor=none;fillColor=none;spacing=5;spacingTop=-20;whiteSpace=wrap;overflow=hidden;rounded=0;" parent="1" vertex="1">
          <mxGeometry x="520" y="650" width="460" height="160" as="geometry" />
        </mxCell>
        <mxCell id="aP7m1-uafCFphGfOBbi7-16" value="" style="edgeStyle=orthogonalEdgeStyle;rounded=0;orthogonalLoop=1;jettySize=auto;html=1;fontColor=#000000;" parent="1" source="aP7m1-uafCFphGfOBbi7-12" target="aP7m1-uafCFphGfOBbi7-15" edge="1">
          <mxGeometry relative="1" as="geometry" />
        </mxCell>
        <mxCell id="aP7m1-uafCFphGfOBbi7-12" value="fp-&amp;gt;f_offset" style="whiteSpace=wrap;html=1;rounded=1;fillColor=#f8cecc;strokeColor=#b85450;" parent="1" vertex="1">
          <mxGeometry x="390" y="830" width="120" height="60" as="geometry" />
        </mxCell>
        <mxCell id="aP7m1-uafCFphGfOBbi7-14" value="&lt;h1&gt;竞态&lt;/h1&gt;&lt;p&gt;类似于fp，有可能多个线程都在操作这个fp。所以针对这个变量的更新，需要使用atomic操作.&lt;/p&gt;" style="text;html=1;strokeColor=none;fillColor=none;spacing=5;spacingTop=-20;whiteSpace=wrap;overflow=hidden;rounded=0;labelBackgroundColor=none;fontColor=#000000;" parent="1" vertex="1">
          <mxGeometry x="520" y="820" width="190" height="120" as="geometry" />
        </mxCell>
        <mxCell id="RqPFMmIZ2FTs6EOz_FOU-2" value="" style="edgeStyle=orthogonalEdgeStyle;rounded=0;orthogonalLoop=1;jettySize=auto;html=1;" edge="1" parent="1" source="aP7m1-uafCFphGfOBbi7-15" target="RqPFMmIZ2FTs6EOz_FOU-6">
          <mxGeometry relative="1" as="geometry">
            <mxPoint x="450" y="1100" as="targetPoint" />
          </mxGeometry>
        </mxCell>
        <mxCell id="aP7m1-uafCFphGfOBbi7-15" value="my_fshadow_pread_slot" style="whiteSpace=wrap;html=1;rounded=1;strokeColor=#b85450;fillColor=#f8cecc;" parent="1" vertex="1">
          <mxGeometry x="350" y="970" width="200" height="60" as="geometry" />
        </mxCell>
        <mxCell id="aP7m1-uafCFphGfOBbi7-17" value="" style="shape=curlyBracket;whiteSpace=wrap;html=1;rounded=1;labelBackgroundColor=none;fontColor=#000000;" parent="1" vertex="1">
          <mxGeometry x="340" y="130" width="50" height="90" as="geometry" />
        </mxCell>
        <mxCell id="aP7m1-uafCFphGfOBbi7-18" value="syscall" style="text;html=1;strokeColor=none;fillColor=none;align=center;verticalAlign=middle;whiteSpace=wrap;rounded=0;labelBackgroundColor=none;fontColor=#000000;fontSize=17;" parent="1" vertex="1">
          <mxGeometry x="280" y="160" width="60" height="30" as="geometry" />
        </mxCell>
        <mxCell id="aP7m1-uafCFphGfOBbi7-19" value="" style="shape=curlyBracket;whiteSpace=wrap;html=1;rounded=1;labelBackgroundColor=none;fontColor=#000000;" parent="1" vertex="1">
          <mxGeometry x="290" y="280" width="60" height="330" as="geometry" />
        </mxCell>
        <mxCell id="aP7m1-uafCFphGfOBbi7-20" value="&lt;font style=&quot;font-size: 18px&quot;&gt;file&lt;/font&gt;" style="text;html=1;strokeColor=none;fillColor=none;align=center;verticalAlign=middle;whiteSpace=wrap;rounded=0;labelBackgroundColor=none;fontColor=#000000;" parent="1" vertex="1">
          <mxGeometry x="230" y="430" width="60" height="30" as="geometry" />
        </mxCell>
        <mxCell id="RqPFMmIZ2FTs6EOz_FOU-3" value="" style="shape=curlyBracket;whiteSpace=wrap;html=1;rounded=1;flipH=1;rotation=270;" vertex="1" parent="1">
          <mxGeometry x="755" y="1010" width="70" height="300" as="geometry" />
        </mxCell>
        <mxCell id="RqPFMmIZ2FTs6EOz_FOU-4" value="vfs.pread != NULL &amp;amp;&amp;amp;&lt;br&gt;vfs.io_max = 0" style="rounded=1;whiteSpace=wrap;html=1;" vertex="1" parent="1">
          <mxGeometry x="580" y="1190" width="120" height="60" as="geometry" />
        </mxCell>
        <mxCell id="RqPFMmIZ2FTs6EOz_FOU-5" value="vfs.pread != NULL &amp;amp;&amp;amp;&lt;br&gt;readlen &amp;lt; vfs.io_max" style="rounded=1;whiteSpace=wrap;html=1;" vertex="1" parent="1">
          <mxGeometry x="880" y="1190" width="120" height="60" as="geometry" />
        </mxCell>
        <mxCell id="RqPFMmIZ2FTs6EOz_FOU-7" style="edgeStyle=orthogonalEdgeStyle;rounded=0;orthogonalLoop=1;jettySize=auto;html=1;entryX=0;entryY=0.5;entryDx=0;entryDy=0;entryPerimeter=0;" edge="1" parent="1" source="RqPFMmIZ2FTs6EOz_FOU-6" target="RqPFMmIZ2FTs6EOz_FOU-3">
          <mxGeometry relative="1" as="geometry" />
        </mxCell>
        <mxCell id="RqPFMmIZ2FTs6EOz_FOU-9" value="YES" style="edgeLabel;html=1;align=center;verticalAlign=middle;resizable=0;points=[];" vertex="1" connectable="0" parent="RqPFMmIZ2FTs6EOz_FOU-7">
          <mxGeometry x="-0.4214" y="-3" relative="1" as="geometry">
            <mxPoint as="offset" />
          </mxGeometry>
        </mxCell>
        <mxCell id="RqPFMmIZ2FTs6EOz_FOU-8" style="edgeStyle=orthogonalEdgeStyle;rounded=0;orthogonalLoop=1;jettySize=auto;html=1;" edge="1" parent="1" source="RqPFMmIZ2FTs6EOz_FOU-6">
          <mxGeometry relative="1" as="geometry">
            <mxPoint x="450" y="1280" as="targetPoint" />
          </mxGeometry>
        </mxCell>
        <mxCell id="RqPFMmIZ2FTs6EOz_FOU-10" value="NO" style="edgeLabel;html=1;align=center;verticalAlign=middle;resizable=0;points=[];" vertex="1" connectable="0" parent="RqPFMmIZ2FTs6EOz_FOU-8">
          <mxGeometry x="-0.0069" y="2" relative="1" as="geometry">
            <mxPoint as="offset" />
          </mxGeometry>
        </mxCell>
        <mxCell id="RqPFMmIZ2FTs6EOz_FOU-6" value="走pread吗？" style="rhombus;whiteSpace=wrap;html=1;" vertex="1" parent="1">
          <mxGeometry x="370" y="1075" width="160" height="60" as="geometry" />
        </mxCell>
        <mxCell id="RqPFMmIZ2FTs6EOz_FOU-13" value="" style="edgeStyle=orthogonalEdgeStyle;rounded=0;orthogonalLoop=1;jettySize=auto;html=1;" edge="1" parent="1" source="RqPFMmIZ2FTs6EOz_FOU-11" target="RqPFMmIZ2FTs6EOz_FOU-12">
          <mxGeometry relative="1" as="geometry" />
        </mxCell>
        <mxCell id="RqPFMmIZ2FTs6EOz_FOU-11" value="" style="shape=curlyBracket;whiteSpace=wrap;html=1;rounded=1;rotation=270;" vertex="1" parent="1">
          <mxGeometry x="765" y="1125" width="50" height="300" as="geometry" />
        </mxCell>
        <mxCell id="RqPFMmIZ2FTs6EOz_FOU-12" value="vfs.pread()" style="whiteSpace=wrap;html=1;rounded=1;fillColor=#fff2cc;strokeColor=#d6b656;" vertex="1" parent="1">
          <mxGeometry x="730" y="1330" width="120" height="60" as="geometry" />
        </mxCell>
        <mxCell id="RqPFMmIZ2FTs6EOz_FOU-15" style="edgeStyle=orthogonalEdgeStyle;rounded=0;orthogonalLoop=1;jettySize=auto;html=1;" edge="1" parent="1" source="RqPFMmIZ2FTs6EOz_FOU-14" target="RqPFMmIZ2FTs6EOz_FOU-16">
          <mxGeometry relative="1" as="geometry">
            <mxPoint x="450" y="1410" as="targetPoint" />
          </mxGeometry>
        </mxCell>
        <mxCell id="RqPFMmIZ2FTs6EOz_FOU-14" value="my_fshadow_slot_alloc()" style="rounded=1;whiteSpace=wrap;html=1;fillColor=#f8cecc;strokeColor=#b85450;" vertex="1" parent="1">
          <mxGeometry x="370" y="1280" width="160" height="50" as="geometry" />
        </mxCell>
        <mxCell id="RqPFMmIZ2FTs6EOz_FOU-18" value="" style="edgeStyle=orthogonalEdgeStyle;rounded=0;orthogonalLoop=1;jettySize=auto;html=1;" edge="1" parent="1" source="RqPFMmIZ2FTs6EOz_FOU-16" target="RqPFMmIZ2FTs6EOz_FOU-17">
          <mxGeometry relative="1" as="geometry" />
        </mxCell>
        <mxCell id="RqPFMmIZ2FTs6EOz_FOU-16" value="overlapped_initrd()" style="rounded=1;whiteSpace=wrap;html=1;fillColor=#f8cecc;strokeColor=#b85450;" vertex="1" parent="1">
          <mxGeometry x="390" y="1380" width="120" height="60" as="geometry" />
        </mxCell>
        <mxCell id="RqPFMmIZ2FTs6EOz_FOU-20" value="" style="edgeStyle=orthogonalEdgeStyle;rounded=0;orthogonalLoop=1;jettySize=auto;html=1;" edge="1" parent="1" source="RqPFMmIZ2FTs6EOz_FOU-17" target="RqPFMmIZ2FTs6EOz_FOU-19">
          <mxGeometry relative="1" as="geometry" />
        </mxCell>
        <mxCell id="RqPFMmIZ2FTs6EOz_FOU-26" style="edgeStyle=orthogonalEdgeStyle;rounded=0;orthogonalLoop=1;jettySize=auto;html=1;entryX=0;entryY=0.5;entryDx=0;entryDy=0;shape=link;" edge="1" parent="1" source="RqPFMmIZ2FTs6EOz_FOU-17" target="RqPFMmIZ2FTs6EOz_FOU-24">
          <mxGeometry relative="1" as="geometry" />
        </mxCell>
        <mxCell id="RqPFMmIZ2FTs6EOz_FOU-17" value="my_fshadow_readreq_err()" style="whiteSpace=wrap;html=1;rounded=1;strokeColor=#A50040;fillColor=#d80073;fontColor=#ffffff;" vertex="1" parent="1">
          <mxGeometry x="355" y="1500" width="190" height="50" as="geometry" />
        </mxCell>
        <mxCell id="RqPFMmIZ2FTs6EOz_FOU-22" value="" style="edgeStyle=orthogonalEdgeStyle;rounded=0;orthogonalLoop=1;jettySize=auto;html=1;" edge="1" parent="1" source="RqPFMmIZ2FTs6EOz_FOU-19" target="RqPFMmIZ2FTs6EOz_FOU-21">
          <mxGeometry relative="1" as="geometry" />
        </mxCell>
        <mxCell id="RqPFMmIZ2FTs6EOz_FOU-19" value="my_fshadow_ioqueue_dequeue1()" style="whiteSpace=wrap;html=1;rounded=1;strokeColor=#b85450;fillColor=#f8cecc;" vertex="1" parent="1">
          <mxGeometry x="335" y="1625" width="230" height="55" as="geometry" />
        </mxCell>
        <mxCell id="RqPFMmIZ2FTs6EOz_FOU-21" value="my_fshadow_slot_free()" style="whiteSpace=wrap;html=1;rounded=1;strokeColor=#b85450;fillColor=#f8cecc;" vertex="1" parent="1">
          <mxGeometry x="370" y="1757.5" width="160" height="42.5" as="geometry" />
        </mxCell>
        <mxCell id="RqPFMmIZ2FTs6EOz_FOU-24" value="my_fshadow_readreq_err()" style="shape=process;whiteSpace=wrap;html=1;backgroundOutline=1;fillColor=#f8cecc;strokeColor=#b85450;" vertex="1" parent="1">
          <mxGeometry x="780" y="1497" width="230" height="55" as="geometry" />
        </mxCell>
      </root>
    </mxGraphModel>
  </diagram>
</mxfile>
